<?xml version="1.0" encoding="utf-8"?>
<svg
	version="1.1"
	xmlns="http://www.w3.org/2000/svg"
	xmlns:xlink="http://www.w3.org/1999/xlink"
	x="0px" y="0px"
	width="100.0px" height="100.0px"
	viewBox="0 0 100.0 100.0"
	enable-background="new 0 0 100.0 100.0"
	xml:space="preserve">
	<path
		fill="#002631"
		stroke="#002631"
		fill-opacity="1.000"
		stroke-opacity="1.000"
		fill-rule="nonzero"
		stroke-width="0.3"
		stroke-linejoin="miter"
		stroke-linecap="square"
		d="M80.11,40.33C78.39,33.93,77.05,29.94,73.45,24.34C64.68,21.64,49.66,22.17,42.56,23.23C41.42,30.80,40.22,37.58,40.09,42.50C38.30,42.67,37.84,43.52,38.01,44.01C39.90,45.14,41.66,45.52,45.07,48.97C47.02,50.92,47.56,51.66,49.03,53.91C54.56,48.14,62.37,44.43,68.60,42.52C71.71,41.50,78.09,40.14,80.11,40.33z"/>
	<path
		fill="#F1EFD7"
		stroke="#F1EFD7"
		fill-opacity="1.000"
		stroke-opacity="1.000"
		fill-rule="nonzero"
		stroke-width="0.1"
		stroke-linejoin="miter"
		stroke-linecap="square"
		d="M54.97,40.74C51.86,41.14,49.38,42.49,46.99,41.04C46.12,39.95,44.57,40.59,44.86,39.62C45.49,38.65,46.77,36.80,49.23,35.68C51.46,22.64,41.48,24.39,42.80,38.46C43.23,42.22,47.45,44.53,52.24,42.89C54.24,43.02,57.23,43.28,60.20,41.98C63.58,40.68,66.80,36.64,63.44,29.20C61.52,25.66,55.49,26.02,54.09,31.20C53.32,34.55,53.83,37.92,54.97,40.74z"/>
	<path
		fill="#000000"
		stroke="#020200"
		fill-opacity="0.992"
		stroke-opacity="1.000"
		fill-rule="nonzero"
		stroke-width="0.0"
		stroke-linejoin="miter"
		stroke-linecap="square"
		d="M45.23,35.36C45.09,35.67,44.43,36.35,44.03,34.72C43.68,32.79,46.26,32.94,45.23,35.36z"/>
	<path
		fill="#000000"
		stroke="#020200"
		fill-opacity="1.000"
		stroke-opacity="1.000"
		fill-rule="nonzero"
		stroke-width="0.1"
		stroke-linejoin="miter"
		stroke-linecap="square"
		d="M59.42,35.31C59.32,35.60,58.75,36.08,58.52,34.79C58.02,32.89,60.54,33.02,59.42,35.31z"/>
	<path
		fill="#F1AEAB"
		stroke="#020200"
		fill-opacity="1.000"
		stroke-opacity="1.000"
		fill-rule="nonzero"
		stroke-width="0.0"
		stroke-linejoin="miter"
		stroke-linecap="square"
		d="M43.37,37.35C43.55,35.94,46.19,36.18,45.29,37.55C44.56,38.41,43.36,37.80,43.37,37.35z"/>
	<path
		fill="#F1AEAB"
		stroke="#020200"
		fill-opacity="1.000"
		stroke-opacity="1.000"
		fill-rule="nonzero"
		stroke-width="0.0"
		stroke-linejoin="miter"
		stroke-linecap="square"
		d="M58.10,37.31C57.93,35.59,61.33,35.80,60.38,37.57C59.48,38.71,58.02,37.90,58.10,37.31z"/>
	<path
		fill="#FA8269"
		stroke="#FA8269"
		fill-opacity="1.000"
		stroke-opacity="1.000"
		fill-rule="nonzero"
		stroke-width="0.0"
		stroke-linejoin="miter"
		stroke-linecap="square"
		d="M54.31,38.99C54.11,38.26,53.95,37.41,53.85,36.83C52.59,35.57,52.21,35.18,51.66,35.17C50.29,35.13,47.26,36.02,44.95,39.53C44.85,39.77,46.30,39.96,46.63,39.89C50.61,34.90,51.60,35.44,54.31,38.99z"/>
	<path
		fill="#FE653F"
		stroke="#FE653F"
		fill-opacity="1.000"
		stroke-opacity="1.000"
		fill-rule="nonzero"
		stroke-width="0.1"
		stroke-linejoin="miter"
		stroke-linecap="square"
		d="M50.97,36.27C52.11,36.24,53.11,37.48,54.28,39.01C54.45,39.61,54.56,39.95,54.83,40.65C54.45,40.71,53.97,40.79,53.51,40.89C50.51,39.78,49.20,39.78,46.73,39.84C48.14,38.09,49.79,36.22,50.97,36.27z"/>
	<path
		fill="#FE4A05"
		stroke="#FE4A05"
		fill-opacity="1.000"
		stroke-opacity="1.000"
		fill-rule="nonzero"
		stroke-width="0.0"
		stroke-linejoin="miter"
		stroke-linecap="square"
		d="M44.95,39.53C44.59,40.23,45.32,40.13,46.19,40.43C46.71,40.57,46.84,41.36,48.92,41.66C49.69,41.75,51.71,41.45,53.51,40.94C50.79,39.94,49.59,39.78,46.63,39.89C46.20,39.93,44.88,39.77,44.95,39.53z"/>
	<path
		fill="#FCFEFD"
		stroke="#FCFEFD"
		fill-opacity="1.000"
		stroke-opacity="1.000"
		fill-rule="nonzero"
		stroke-width="0.1"
		stroke-linejoin="miter"
		stroke-linecap="square"
		d="M75.58,22.29C76.29,22.68,77.09,24.01,74.80,26.19C74.40,25.50,73.90,24.59,73.57,24.21C73.20,24.04,72.24,23.82,71.06,23.53C65.22,22.32,59.37,22.17,53.90,22.22C52.56,22.17,43.54,22.81,42.38,23.09L42.28,23.92C41.84,24.01,40.48,23.85,40.75,23.10C41.64,20.83,42.88,20.87,44.27,20.49C46.22,15.92,49.74,12.63,54.97,11.69C61.29,10.69,65.57,12.97,67.49,14.59C69.67,16.30,71.47,19.00,71.67,21.15C73.14,21.41,74.11,21.55,75.58,22.29z"/>
	<path
		fill="#CBD2D5"
		stroke="#CBD2D5"
		fill-opacity="1.000"
		stroke-opacity="1.000"
		fill-rule="nonzero"
		stroke-width="0.1"
		stroke-linejoin="miter"
		stroke-linecap="square"
		d="M56.59,11.60C52.42,11.88,48.72,15.50,47.52,20.43C47.74,16.32,51.15,13.22,51.49,12.87C52.38,12.47,54.04,11.74,56.59,11.60z"/>
	<path
		fill="#CBD2D5"
		stroke="#CBD2D5"
		fill-opacity="1.000"
		stroke-opacity="1.000"
		fill-rule="nonzero"
		stroke-width="0.1"
		stroke-linejoin="miter"
		stroke-linecap="square"
		d="M75.78,24.91C75.73,22.47,72.01,21.95,70.20,21.64C66.10,20.82,59.91,20.62,57.81,20.87C59.30,14.22,66.20,14.16,66.54,14.58Q66.28,14.94,66.39,15.44C64.81,15.30,61.05,15.75,58.90,19.97C62.62,20.17,66.81,20.28,71.48,21.22C73.59,21.54,76.44,22.13,76.21,23.61C76.20,24.00,75.95,24.74,75.78,24.91z"/>
	<path
		fill="#FBC100"
		stroke="#FBC100"
		fill-opacity="0.988"
		stroke-opacity="1.000"
		fill-rule="nonzero"
		stroke-width="0.1"
		stroke-linejoin="miter"
		stroke-linecap="square"
		d="M32.02,19.49Q32.27,18.03,34.20,17.87C35.15,17.53,36.06,17.23,37.77,17.30Q36.14,17.77,34.34,19.21C34.94,24.10,39.96,27.87,41.53,28.64C41.13,31.24,40.18,36.94,39.91,42.32C38.30,42.45,37.45,43.52,37.89,44.17C38.82,44.80,44.40,46.63,49.00,54.15C54.04,49.10,62.16,43.56,74.88,41.13C76.54,40.78,78.68,40.44,80.29,40.50C82.87,41.05,83.27,42.35,82.79,47.17C84.80,52.34,87.00,57.14,89.25,68.84C89.81,71.96,89.81,73.90,90.00,76.75C81.82,79.68,68.78,77.25,65.74,74.15C65.55,79.91,66.77,84.15,69.54,86.05C56.27,86.28,42.84,85.92,35.45,86.10L35.49,85.45C30.31,85.48,25.70,84.76,25.30,84.18C28.18,72.49,31.47,65.43,34.40,56.92C30.20,56.21,23.01,48.86,22.42,46.08C22.54,40.46,26.21,26.71,28.09,24.59C29.58,22.43,30.36,20.94,32.02,19.49z"/>
	<path
		fill="#FCE43A"
		stroke="#FCE43A"
		fill-opacity="1.000"
		stroke-opacity="1.000"
		fill-rule="nonzero"
		stroke-width="0.1"
		stroke-linejoin="miter"
		stroke-linecap="square"
		d="M63.19,82.55C44.76,82.39,35.71,82.50,27.51,82.96C29.87,73.99,32.36,66.87,34.15,60.25C41.30,59.73,53.50,60.05,63.60,60.00C62.69,69.45,63.32,78.30,63.19,82.55z"/>
	<path
		fill="#F78D01"
		stroke="#F78D01"
		fill-opacity="1.000"
		stroke-opacity="1.000"
		fill-rule="nonzero"
		stroke-width="0.1"
		stroke-linejoin="miter"
		stroke-linecap="square"
		d="M82.66,47.13C77.51,47.73,72.37,48.63,66.21,50.52C56.62,53.03,53.36,55.28,47.83,57.95C47.12,63.26,45.67,78.05,46.00,82.53C53.42,82.67,61.22,82.65,66.88,82.65Q67.11,83.26,67.41,83.76C58.15,83.39,51.57,83.41,46.03,83.61C45.99,84.38,45.92,85.20,45.94,86.01L45.42,86.00C45.42,85.31,45.40,84.00,45.43,83.65C38.86,83.87,34.53,83.77,29.36,83.41C34.04,84.08,35.76,84.34,35.50,85.37C30.52,85.21,26.61,84.95,25.38,84.17Q25.51,83.62,25.60,83.30C30.88,82.47,38.33,82.72,45.35,82.59C45.01,74.14,46.02,61.82,47.48,55.45Q47.95,54.59,48.41,54.09C47.61,52.77,46.83,51.42,43.59,47.86C46.59,50.55,47.68,52.34,48.97,54.29Q48.27,54.93,47.89,56.21C57.85,49.62,66.60,48.10,69.69,47.17C74.03,46.21,79.67,44.42,82.83,45.14Q82.70,46.71,82.66,47.13z"/>
	<path
		fill="#0F7BA5"
		stroke="#0F7BA5"
		fill-opacity="1.000"
		stroke-opacity="1.000"
		fill-rule="nonzero"
		stroke-width="0.0"
		stroke-linejoin="miter"
		stroke-linecap="square"
		d="M41.58,28.61C41.26,28.47,40.87,28.20,40.50,27.96Q41.14,27.77,41.79,27.39Q41.67,27.99,41.58,28.61z"/>
	<path
		fill="#002631"
		stroke="#002631"
		fill-opacity="0.992"
		stroke-opacity="1.000"
		fill-rule="nonzero"
		stroke-width="0.1"
		stroke-linejoin="miter"
		stroke-linecap="square"
		d="M65.84,74.34C69.51,77.48,78.90,78.67,85.33,77.92C85.69,84.32,78.59,89.01,74.26,85.95C68.85,88.55,65.38,82.78,65.84,74.34z"/>
	<path
		fill="#083845"
		stroke="#40FF01"
		fill-opacity="1.000"
		stroke-opacity="1.000"
		fill-rule="nonzero"
		stroke-width="0.0"
		stroke-linejoin="miter"
		stroke-linecap="square"
		d="M67.90,80.62C67.88,80.12,67.75,78.37,67.99,77.16C68.97,78.11,72.20,78.99,73.52,79.16C73.51,79.92,73.52,81.88,72.71,84.06C72.15,85.80,68.29,84.79,67.90,80.62z"/>
	<path
		fill="#083845"
		stroke="#40FF01"
		fill-opacity="1.000"
		stroke-opacity="1.000"
		fill-rule="nonzero"
		stroke-width="0.0"
		stroke-linejoin="miter"
		stroke-linecap="square"
		d="M74.62,83.85C74.58,81.65,74.41,79.45,74.85,79.32C75.18,79.09,79.81,79.72,84.08,79.08C83.95,81.50,82.60,83.10,80.39,84.31C78.47,85.42,74.22,86.74,74.62,83.85z"/>
	<path
		fill="#FB482A"
		stroke="#FB482A"
		fill-opacity="1.000"
		stroke-opacity="1.000"
		fill-rule="nonzero"
		stroke-width="0.1"
		stroke-linejoin="miter"
		stroke-linecap="square"
		d="M49.77,90.26C44.63,90.57,37.95,90.28,31.59,90.33C31.73,88.02,35.07,87.46,35.42,87.39L35.45,86.18C40.08,86.13,43.22,86.09,48.25,86.18C51.59,86.20,56.47,86.25,60.84,86.22C63.86,86.23,66.20,86.22,69.67,86.14C71.06,86.86,72.58,86.87,74.25,86.05C74.69,86.38,75.22,86.57,75.51,86.70C75.42,87.68,75.10,89.58,75.01,90.17L58.08,90.29C58.18,89.18,59.20,88.23,60.73,87.53C58.25,87.15,55.75,87.24,49.82,87.27L49.77,90.26z"/>
	<path
		fill="#FE6A3F"
		stroke="#FE6A3F"
		fill-opacity="1.000"
		stroke-opacity="1.000"
		fill-rule="nonzero"
		stroke-width="0.1"
		stroke-linejoin="miter"
		stroke-linecap="square"
		d="M43.42,89.02Q43.34,89.66,42.84,89.64L39.79,89.56C40.86,87.43,43.56,87.13,43.42,89.02z"/>
	<path
		fill="#FE6A3F"
		stroke="#FE6A3F"
		fill-opacity="1.000"
		stroke-opacity="1.000"
		fill-rule="nonzero"
		stroke-width="0.1"
		stroke-linejoin="miter"
		stroke-linecap="square"
		d="M39.54,88.84Q39.30,89.45,38.96,89.70L36.30,89.58C37.10,87.40,40.74,87.04,39.54,88.84z"/>
	<path
		fill="#FE6A3F"
		stroke="#FE6A3F"
		fill-opacity="1.000"
		stroke-opacity="1.000"
		fill-rule="nonzero"
		stroke-width="0.1"
		stroke-linejoin="miter"
		stroke-linecap="square"
		d="M63.21,89.26Q62.94,89.77,65.22,89.52L74.62,89.57C74.29,87.31,63.46,86.08,63.21,89.26z"/>
	<path
		fill="#FE6A3F"
		stroke="#FE6A3F"
		fill-opacity="1.000"
		stroke-opacity="1.000"
		fill-rule="nonzero"
		stroke-width="0.1"
		stroke-linejoin="miter"
		stroke-linecap="square"
		d="M62.64,89.00Q62.26,89.93,59.49,89.52L59.50,89.19C60.67,87.24,63.94,87.35,62.64,89.00z"/>
	<path
		fill="#FE6A3F"
		stroke="#FE6A3F"
		fill-opacity="1.000"
		stroke-opacity="1.000"
		fill-rule="nonzero"
		stroke-width="0.1"
		stroke-linejoin="miter"
		stroke-linecap="square"
		d="M32.51,89.51Q32.60,88.45,34.57,87.84L36.01,87.48C33.89,88.97,35.62,90.46,32.51,89.51z"/>
	<path
		fill="#F78D01"
		stroke="#F78D01"
		fill-opacity="1.000"
		stroke-opacity="1.000"
		fill-rule="nonzero"
		stroke-width="0.1"
		stroke-linejoin="miter"
		stroke-linecap="square"
		d="M32.16,22.17C32.58,26.62,36.82,30.72,40.99,32.16C41.07,31.62,41.42,29.59,41.53,28.64C40.24,27.93,38.34,26.53,36.52,24.17C35.47,22.93,34.50,20.58,34.31,19.23C35.15,18.54,36.63,17.65,37.87,17.23C35.72,17.20,34.65,17.73,34.25,17.85C32.66,20.00,35.10,24.10,36.42,25.53C38.26,27.92,40.02,29.05,41.02,29.53L40.66,31.60C39.16,31.64,32.76,27.19,32.16,22.17z"/>
	<path
		fill="#F78D01"
		stroke="#F78D01"
		fill-opacity="1.000"
		stroke-opacity="1.000"
		fill-rule="nonzero"
		stroke-width="0.1"
		stroke-linejoin="miter"
		stroke-linecap="square"
		d="M37.06,49.97C34.53,49.18,36.22,49.02,36.38,47.06C36.49,46.60,36.60,46.04,36.75,45.45C37.13,43.46,37.32,42.30,39.09,41.93C39.36,40.56,39.79,38.74,39.96,37.62C34.94,36.80,28.40,30.72,27.15,26.42Q27.51,25.47,28.24,24.58C28.26,28.81,33.74,35.18,40.38,36.81C40.28,37.77,40.06,40.01,39.92,42.32C38.19,42.55,37.53,43.51,37.87,44.12L36.55,48.79C39.92,50.20,43.92,51.89,47.33,55.57Q46.72,56.33,45.80,56.65C44.01,53.81,40.51,51.35,37.49,50.45C36.08,53.34,34.94,55.72,34.48,57.05C35.01,54.41,37.25,49.99,37.06,49.97z"/>
	<path
		fill="#FFE744"
		stroke="#FCE43A"
		fill-opacity="0.914"
		stroke-opacity="1.000"
		fill-rule="nonzero"
		stroke-width="0.0"
		stroke-linejoin="miter"
		stroke-linecap="square"
		d="M89.87,76.38C88.16,76.58,71.70,79.40,65.34,72.76C65.54,71.89,65.68,69.97,65.98,67.03C72.75,70.10,81.05,70.10,89.14,69.10C89.72,71.85,89.75,74.59,89.87,76.38z"/>
	<path
		fill="#EEAE00"
		stroke="#FECA00"
		fill-opacity="1.000"
		stroke-opacity="1.000"
		fill-rule="nonzero"
		stroke-width="0.0"
		stroke-linejoin="miter"
		stroke-linecap="square"
		d="M89.89,76.37C87.19,76.94,81.06,77.35,79.12,77.13C79.54,75.17,79.69,72.70,79.72,69.68C82.20,69.70,86.11,69.44,89.19,69.07C89.80,71.78,89.77,74.74,89.89,76.37z"/>
	<path
		fill="#F78D01"
		stroke="#F78D01"
		fill-opacity="1.000"
		stroke-opacity="1.000"
		fill-rule="nonzero"
		stroke-width="0.1"
		stroke-linejoin="miter"
		stroke-linecap="square"
		d="M82.06,77.08C84.04,69.20,83.20,58.85,81.85,47.33Q82.24,47.27,82.71,47.23C82.95,47.88,83.06,48.10,83.09,48.19C82.77,48.46,82.42,48.50,82.30,48.51C82.32,49.43,82.29,49.81,82.92,54.20C83.06,55.78,83.71,60.06,84.47,69.04C84.89,72.77,84.91,74.67,84.84,76.91C84.48,76.94,82.57,77.11,82.06,77.08z"/>
	<path
		fill="#F78D01"
		stroke="#F78D01"
		fill-opacity="1.000"
		stroke-opacity="1.000"
		fill-rule="nonzero"
		stroke-width="0.1"
		stroke-linejoin="miter"
		stroke-linecap="square"
		d="M65.75,74.27Q65.22,73.95,64.93,73.64C65.54,72.59,65.77,69.69,65.98,66.76C66.03,64.27,66.58,56.22,66.83,50.43Q66.76,50.46,66.46,50.56C65.88,60.62,65.55,68.31,63.27,72.18C63.13,78.07,63.31,79.86,63.28,82.60L66.85,82.62C65.88,80.09,65.60,77.40,65.75,74.27z"/>
	<path
		fill="#002631"
		stroke="#002631"
		fill-opacity="1.000"
		stroke-opacity="1.000"
		fill-rule="nonzero"
		stroke-width="0.1"
		stroke-linejoin="miter"
		stroke-linecap="square"
		d="M37.80,17.32C39.55,15.09,45.48,15.09,46.32,16.84C45.77,17.44,44.56,19.30,44.26,20.41C43.50,20.56,41.94,20.87,41.41,21.77C40.36,23.13,40.32,24.10,42.27,24.01C42.16,24.71,42.00,26.18,41.74,27.37Q41.05,27.74,40.52,27.91C38.28,26.31,35.20,23.49,34.40,19.25C35.61,18.36,36.57,17.76,37.80,17.32z"/>
	<path
		fill="#450032"
		stroke="#450032"
		fill-opacity="1.000"
		stroke-opacity="1.000"
		fill-rule="nonzero"
		stroke-width="0.10674561"
		stroke-linejoin="miter"
		stroke-linecap="square"
		d="M24.34,55.58C24.35,55.79,22.99,56.90,22.84,56.86C22.83,56.59,24.22,55.54,24.34,55.58z"/>
	<path
		fill="#450032"
		stroke="#450032"
		fill-opacity="1.000"
		stroke-opacity="1.000"
		fill-rule="nonzero"
		stroke-width="0.0"
		stroke-linejoin="miter"
		stroke-linecap="square"
		d="M27.53,60.21C27.55,60.51,25.48,62.76,25.22,62.76C25.26,62.42,27.30,60.19,27.53,60.21z"/>
	<path
		fill="#450032"
		stroke="#450032"
		fill-opacity="1.000"
		stroke-opacity="1.000"
		fill-rule="nonzero"
		stroke-width="0.0"
		stroke-linejoin="miter"
		stroke-linecap="square"
		d="M24.20,25.22C23.80,25.00,17.45,23.23,18.56,23.28C18.44,23.25,24.76,25.09,24.20,25.22z"/>
	<path
		fill="#450032"
		stroke="#450032"
		fill-opacity="1.000"
		stroke-opacity="1.000"
		fill-rule="nonzero"
		stroke-width="0.0"
		stroke-linejoin="miter"
		stroke-linecap="square"
		d="M22.77,21.71C22.92,21.79,19.44,20.50,19.96,20.40C19.88,20.49,22.98,21.51,22.77,21.71z"/>
	<path
		fill="#002631"
		stroke="#450032"
		fill-opacity="1.000"
		stroke-opacity="1.000"
		fill-rule="nonzero"
		stroke-width="0.0"
		stroke-linejoin="miter"
		stroke-linecap="square"
		d="M74.05,10.78C73.94,10.50,75.56,8.46,75.89,9.78C76.09,9.86,74.37,11.80,74.05,10.78z"/>
	<path
		fill="#002631"
		stroke="#450032"
		fill-opacity="1.000"
		stroke-opacity="1.000"
		fill-rule="nonzero"
		stroke-width="0.0"
		stroke-linejoin="miter"
		stroke-linecap="square"
		d="M77.90,17.06C78.83,16.58,81.63,14.70,81.05,16.42C80.96,16.49,77.12,18.25,77.90,17.06z"/>
	<path
		fill="#450032"
		stroke="#450032"
		fill-opacity="1.000"
		stroke-opacity="1.000"
		fill-rule="nonzero"
		stroke-width="0.0"
		stroke-linejoin="miter"
		stroke-linecap="square"
		d="M82.15,31.10C82.32,31.00,83.82,33.31,83.45,33.27C83.60,33.28,82.06,31.09,82.15,31.10z"/>
	<path
		fill="#450032"
		stroke="#450032"
		fill-opacity="1.000"
		stroke-opacity="1.000"
		fill-rule="nonzero"
		stroke-width="0.0"
		stroke-linejoin="miter"
		stroke-linecap="square"
		d="M81.74,25.65C81.92,25.41,85.59,27.40,84.86,27.65C85.06,27.62,81.57,25.71,81.74,25.65z"/>
	<path
		fill="#083845"
		stroke="#00F511"
		fill-opacity="1.000"
		stroke-opacity="1.000"
		fill-rule="nonzero"
		stroke-width="0.0"
		stroke-linejoin="miter"
		stroke-linecap="square"
		d="M35.47,20.58C38.71,16.10,43.82,15.15,45.98,17.10Q45.85,17.25,45.64,17.55C43.92,16.10,39.22,16.24,35.47,20.58z"/>
</svg>